<svg id="visual" viewBox="0 0 960 300" width="960" height="300" xmlns="http://www.w3.org/2000/svg" xmlns:xlink="http://www.w3.org/1999/xlink" version="1.1"><rect x="0" y="0" width="960" height="300" fill="#001220"></rect><path d="M0 221L22.8 213.2C45.7 205.3 91.3 189.7 137 183.5C182.7 177.3 228.3 180.7 274 188.5C319.7 196.3 365.3 208.7 411.2 211.2C457 213.7 503 206.3 548.8 199.8C594.7 193.3 640.3 187.7 686 190.8C731.7 194 777.3 206 823 205.7C868.7 205.3 914.3 192.7 937.2 186.3L960 180L960 301L937.2 301C914.3 301 868.7 301 823 301C777.3 301 731.7 301 686 301C640.3 301 594.7 301 548.8 301C503 301 457 301 411.2 301C365.3 301 319.7 301 274 301C228.3 301 182.7 301 137 301C91.3 301 45.7 301 22.8 301L0 301Z" fill="#fa7268"></path><path d="M0 229L22.8 223.5C45.7 218 91.3 207 137 206.2C182.7 205.3 228.3 214.7 274 221.2C319.7 227.7 365.3 231.3 411.2 231.3C457 231.3 503 227.7 548.8 227.2C594.7 226.7 640.3 229.3 686 227.3C731.7 225.3 777.3 218.7 823 219.8C868.7 221 914.3 230 937.2 234.5L960 239L960 301L937.2 301C914.3 301 868.7 301 823 301C777.3 301 731.7 301 686 301C640.3 301 594.7 301 548.8 301C503 301 457 301 411.2 301C365.3 301 319.7 301 274 301C228.3 301 182.7 301 137 301C91.3 301 45.7 301 22.8 301L0 301Z" fill="#ef5f67"></path><path d="M0 252L22.8 249C45.7 246 91.3 240 137 240.5C182.7 241 228.3 248 274 245.7C319.7 243.3 365.3 231.7 411.2 228.3C457 225 503 230 548.8 232.8C594.7 235.7 640.3 236.3 686 237C731.7 237.7 777.3 238.3 823 237.3C868.7 236.3 914.3 233.7 937.2 232.3L960 231L960 301L937.2 301C914.3 301 868.7 301 823 301C777.3 301 731.7 301 686 301C640.3 301 594.7 301 548.8 301C503 301 457 301 411.2 301C365.3 301 319.7 301 274 301C228.3 301 182.7 301 137 301C91.3 301 45.7 301 22.8 301L0 301Z" fill="#e34c67"></path><path d="M0 268L22.8 266.3C45.7 264.7 91.3 261.3 137 258.7C182.7 256 228.3 254 274 252.7C319.7 251.3 365.3 250.7 411.2 250.2C457 249.7 503 249.3 548.8 249.8C594.7 250.3 640.3 251.7 686 251C731.7 250.3 777.3 247.7 823 249.3C868.7 251 914.3 257 937.2 260L960 263L960 301L937.2 301C914.3 301 868.7 301 823 301C777.3 301 731.7 301 686 301C640.3 301 594.7 301 548.8 301C503 301 457 301 411.2 301C365.3 301 319.7 301 274 301C228.3 301 182.7 301 137 301C91.3 301 45.7 301 22.8 301L0 301Z" fill="#d53867"></path><path d="M0 275L22.8 274.5C45.7 274 91.3 273 137 272.3C182.7 271.7 228.3 271.3 274 271.5C319.7 271.7 365.3 272.3 411.2 273.8C457 275.3 503 277.7 548.8 277.3C594.7 277 640.3 274 686 274.7C731.7 275.3 777.3 279.7 823 280.8C868.7 282 914.3 280 937.2 279L960 278L960 301L937.2 301C914.3 301 868.7 301 823 301C777.3 301 731.7 301 686 301C640.3 301 594.7 301 548.8 301C503 301 457 301 411.2 301C365.3 301 319.7 301 274 301C228.3 301 182.7 301 137 301C91.3 301 45.7 301 22.8 301L0 301Z" fill="#c62368"></path></svg>