<svg id="visual" viewBox="0 0 960 300" width="960" height="300" xmlns="http://www.w3.org/2000/svg" xmlns:xlink="http://www.w3.org/1999/xlink" version="1.1"><rect x="0" y="0" width="960" height="300" fill="#001220"></rect><defs><linearGradient id="grad1_0" x1="68.8%" y1="0%" x2="100%" y2="100%"><stop offset="-14.000000000000007%" stop-color="#001220" stop-opacity="1"></stop><stop offset="114.00000000000001%" stop-color="#001220" stop-opacity="1"></stop></linearGradient></defs><defs><linearGradient id="grad2_0" x1="0%" y1="0%" x2="31.3%" y2="100%"><stop offset="-14.000000000000007%" stop-color="#001220" stop-opacity="1"></stop><stop offset="114.00000000000001%" stop-color="#001220" stop-opacity="1"></stop></linearGradient></defs><g transform="translate(960, 0)"><path d="M0 270C-39.3 270.1 -78.7 270.2 -103.3 249.4C-128 228.7 -138 186.9 -160.5 160.5C-183 134.1 -218 122.9 -238.4 98.7C-258.7 74.5 -264.3 37.3 -270 0L0 0Z" fill="#FBAE3C"></path></g><g transform="translate(0, 300)"><path d="M0 -270C27.8 -248.5 55.7 -226.9 89.9 -217.1C124.2 -207.3 164.8 -209.2 190.9 -190.9C217 -172.7 228.5 -134.3 239.3 -99.1C250 -63.9 260 -32 270 0L0 0Z" fill="#FBAE3C"></path></g></svg>