<svg id="visual" viewBox="0 0 960 540" width="960" height="540" xmlns="http://www.w3.org/2000/svg" xmlns:xlink="http://www.w3.org/1999/xlink" version="1.1"><rect x="0" y="0" width="960" height="540" fill="#001220"></rect><path d="M0 321L22.8 320.7C45.7 320.3 91.3 319.7 137 329.5C182.7 339.3 228.3 359.7 274 359.2C319.7 358.7 365.3 337.3 411.2 339.8C457 342.3 503 368.7 548.8 381.3C594.7 394 640.3 393 686 382.5C731.7 372 777.3 352 823 339.7C868.7 327.3 914.3 322.7 937.2 320.3L960 318L960 541L937.2 541C914.3 541 868.7 541 823 541C777.3 541 731.7 541 686 541C640.3 541 594.7 541 548.8 541C503 541 457 541 411.2 541C365.3 541 319.7 541 274 541C228.3 541 182.7 541 137 541C91.3 541 45.7 541 22.8 541L0 541Z" fill="#fa7268"></path><path d="M0 381L22.8 376.5C45.7 372 91.3 363 137 359.5C182.7 356 228.3 358 274 363.7C319.7 369.3 365.3 378.7 411.2 383.5C457 388.3 503 388.7 548.8 392.7C594.7 396.7 640.3 404.3 686 401.3C731.7 398.3 777.3 384.7 823 382C868.7 379.3 914.3 387.7 937.2 391.8L960 396L960 541L937.2 541C914.3 541 868.7 541 823 541C777.3 541 731.7 541 686 541C640.3 541 594.7 541 548.8 541C503 541 457 541 411.2 541C365.3 541 319.7 541 274 541C228.3 541 182.7 541 137 541C91.3 541 45.7 541 22.8 541L0 541Z" fill="#ef5f67"></path><path d="M0 404L22.8 402.5C45.7 401 91.3 398 137 404C182.7 410 228.3 425 274 426C319.7 427 365.3 414 411.2 412.3C457 410.7 503 420.3 548.8 422.3C594.7 424.3 640.3 418.7 686 413.3C731.7 408 777.3 403 823 408.5C868.7 414 914.3 430 937.2 438L960 446L960 541L937.2 541C914.3 541 868.7 541 823 541C777.3 541 731.7 541 686 541C640.3 541 594.7 541 548.8 541C503 541 457 541 411.2 541C365.3 541 319.7 541 274 541C228.3 541 182.7 541 137 541C91.3 541 45.7 541 22.8 541L0 541Z" fill="#e34c67"></path><path d="M0 449L22.8 451.8C45.7 454.7 91.3 460.3 137 459.5C182.7 458.7 228.3 451.3 274 451.8C319.7 452.3 365.3 460.7 411.2 458.8C457 457 503 445 548.8 444.5C594.7 444 640.3 455 686 461.5C731.7 468 777.3 470 823 472.7C868.7 475.3 914.3 478.7 937.2 480.3L960 482L960 541L937.2 541C914.3 541 868.7 541 823 541C777.3 541 731.7 541 686 541C640.3 541 594.7 541 548.8 541C503 541 457 541 411.2 541C365.3 541 319.7 541 274 541C228.3 541 182.7 541 137 541C91.3 541 45.7 541 22.8 541L0 541Z" fill="#d53867"></path><path d="M0 515L22.8 509.2C45.7 503.3 91.3 491.7 137 490.7C182.7 489.7 228.3 499.3 274 500.3C319.7 501.3 365.3 493.7 411.2 490.2C457 486.7 503 487.3 548.8 488.3C594.7 489.3 640.3 490.7 686 492.5C731.7 494.3 777.3 496.7 823 497.8C868.7 499 914.3 499 937.2 499L960 499L960 541L937.2 541C914.3 541 868.7 541 823 541C777.3 541 731.7 541 686 541C640.3 541 594.7 541 548.8 541C503 541 457 541 411.2 541C365.3 541 319.7 541 274 541C228.3 541 182.7 541 137 541C91.3 541 45.7 541 22.8 541L0 541Z" fill="#c62368"></path></svg>